<mxfile host="Electron" modified="2023-11-19T22:16:23.709Z" agent="Mozilla/5.0 (Windows NT 10.0; Win64; x64) AppleWebKit/537.36 (KHTML, like Gecko) draw.io/22.0.3 Chrome/114.0.5735.289 Electron/25.8.4 Safari/537.36" etag="gahAO70QRFGKUI4wWctf" version="22.0.3" type="device">
  <diagram id="C5RBs43oDa-KdzZeNtuy" name="Page-1">
    <mxGraphModel dx="1075" dy="518" grid="1" gridSize="10" guides="1" tooltips="1" connect="1" arrows="1" fold="1" page="1" pageScale="1" pageWidth="827" pageHeight="1169" math="0" shadow="0">
      <root>
        <mxCell id="WIyWlLk6GJQsqaUBKTNV-0" />
        <mxCell id="WIyWlLk6GJQsqaUBKTNV-1" parent="WIyWlLk6GJQsqaUBKTNV-0" />
        <mxCell id="zkfFHV4jXpPFQw0GAbJ--0" value="Ball" style="swimlane;fontStyle=2;align=center;verticalAlign=top;childLayout=stackLayout;horizontal=1;startSize=26;horizontalStack=0;resizeParent=1;resizeLast=0;collapsible=1;marginBottom=0;rounded=0;shadow=0;strokeWidth=1;" parent="WIyWlLk6GJQsqaUBKTNV-1" vertex="1">
          <mxGeometry x="610" y="558" width="160" height="310" as="geometry">
            <mxRectangle x="230" y="140" width="160" height="26" as="alternateBounds" />
          </mxGeometry>
        </mxCell>
        <mxCell id="zkfFHV4jXpPFQw0GAbJ--1" value="- x : double" style="text;align=left;verticalAlign=top;spacingLeft=4;spacingRight=4;overflow=hidden;rotatable=0;points=[[0,0.5],[1,0.5]];portConstraint=eastwest;" parent="zkfFHV4jXpPFQw0GAbJ--0" vertex="1">
          <mxGeometry y="26" width="160" height="26" as="geometry" />
        </mxCell>
        <mxCell id="zkfFHV4jXpPFQw0GAbJ--2" value="- y : double" style="text;align=left;verticalAlign=top;spacingLeft=4;spacingRight=4;overflow=hidden;rotatable=0;points=[[0,0.5],[1,0.5]];portConstraint=eastwest;rounded=0;shadow=0;html=0;" parent="zkfFHV4jXpPFQw0GAbJ--0" vertex="1">
          <mxGeometry y="52" width="160" height="26" as="geometry" />
        </mxCell>
        <mxCell id="zkfFHV4jXpPFQw0GAbJ--3" value="- radius : int" style="text;align=left;verticalAlign=top;spacingLeft=4;spacingRight=4;overflow=hidden;rotatable=0;points=[[0,0.5],[1,0.5]];portConstraint=eastwest;rounded=0;shadow=0;html=0;" parent="zkfFHV4jXpPFQw0GAbJ--0" vertex="1">
          <mxGeometry y="78" width="160" height="26" as="geometry" />
        </mxCell>
        <mxCell id="zkfFHV4jXpPFQw0GAbJ--5" value="- angle : int" style="text;align=left;verticalAlign=top;spacingLeft=4;spacingRight=4;overflow=hidden;rotatable=0;points=[[0,0.5],[1,0.5]];portConstraint=eastwest;" parent="zkfFHV4jXpPFQw0GAbJ--0" vertex="1">
          <mxGeometry y="104" width="160" height="26" as="geometry" />
        </mxCell>
        <mxCell id="ji8EGOoC9EdibpMoInvr-1" value="- directionX : char" style="text;align=left;verticalAlign=top;spacingLeft=4;spacingRight=4;overflow=hidden;rotatable=0;points=[[0,0.5],[1,0.5]];portConstraint=eastwest;" parent="zkfFHV4jXpPFQw0GAbJ--0" vertex="1">
          <mxGeometry y="130" width="160" height="28" as="geometry" />
        </mxCell>
        <mxCell id="ji8EGOoC9EdibpMoInvr-2" value="- directionY : char" style="text;align=left;verticalAlign=top;spacingLeft=4;spacingRight=4;overflow=hidden;rotatable=0;points=[[0,0.5],[1,0.5]];portConstraint=eastwest;" parent="zkfFHV4jXpPFQw0GAbJ--0" vertex="1">
          <mxGeometry y="158" width="160" height="28" as="geometry" />
        </mxCell>
        <mxCell id="ji8EGOoC9EdibpMoInvr-15" value="" style="line;html=1;strokeWidth=1;align=left;verticalAlign=middle;spacingTop=-1;spacingLeft=3;spacingRight=3;rotatable=0;labelPosition=right;points=[];portConstraint=eastwest;" parent="zkfFHV4jXpPFQw0GAbJ--0" vertex="1">
          <mxGeometry y="186" width="160" height="8" as="geometry" />
        </mxCell>
        <mxCell id="ji8EGOoC9EdibpMoInvr-3" value="constructor" style="text;align=left;verticalAlign=top;spacingLeft=4;spacingRight=4;overflow=hidden;rotatable=0;points=[[0,0.5],[1,0.5]];portConstraint=eastwest;" parent="zkfFHV4jXpPFQw0GAbJ--0" vertex="1">
          <mxGeometry y="194" width="160" height="28" as="geometry" />
        </mxCell>
        <mxCell id="ji8EGOoC9EdibpMoInvr-4" value="drawBall" style="text;align=left;verticalAlign=top;spacingLeft=4;spacingRight=4;overflow=hidden;rotatable=0;points=[[0,0.5],[1,0.5]];portConstraint=eastwest;" parent="zkfFHV4jXpPFQw0GAbJ--0" vertex="1">
          <mxGeometry y="222" width="160" height="28" as="geometry" />
        </mxCell>
        <mxCell id="0cvISrzOzcKb3uD03qhu-0" value="generateBall" style="text;align=left;verticalAlign=top;spacingLeft=4;spacingRight=4;overflow=hidden;rotatable=0;points=[[0,0.5],[1,0.5]];portConstraint=eastwest;" parent="zkfFHV4jXpPFQw0GAbJ--0" vertex="1">
          <mxGeometry y="250" width="160" height="28" as="geometry" />
        </mxCell>
        <mxCell id="0cvISrzOzcKb3uD03qhu-1" value="updateBallCoordiates" style="text;align=left;verticalAlign=top;spacingLeft=4;spacingRight=4;overflow=hidden;rotatable=0;points=[[0,0.5],[1,0.5]];portConstraint=eastwest;" parent="zkfFHV4jXpPFQw0GAbJ--0" vertex="1">
          <mxGeometry y="278" width="160" height="28" as="geometry" />
        </mxCell>
        <mxCell id="ji8EGOoC9EdibpMoInvr-5" value="Field" style="swimlane;fontStyle=2;align=center;verticalAlign=top;childLayout=stackLayout;horizontal=1;startSize=26;horizontalStack=0;resizeParent=1;resizeLast=0;collapsible=1;marginBottom=0;rounded=0;shadow=0;strokeWidth=1;" parent="WIyWlLk6GJQsqaUBKTNV-1" vertex="1">
          <mxGeometry x="400" y="160" width="160" height="360" as="geometry">
            <mxRectangle x="230" y="140" width="160" height="26" as="alternateBounds" />
          </mxGeometry>
        </mxCell>
        <mxCell id="ji8EGOoC9EdibpMoInvr-6" value="- playerOne : Player" style="text;align=left;verticalAlign=top;spacingLeft=4;spacingRight=4;overflow=hidden;rotatable=0;points=[[0,0.5],[1,0.5]];portConstraint=eastwest;" parent="ji8EGOoC9EdibpMoInvr-5" vertex="1">
          <mxGeometry y="26" width="160" height="26" as="geometry" />
        </mxCell>
        <mxCell id="ji8EGOoC9EdibpMoInvr-7" value="- playerTwo" style="text;align=left;verticalAlign=top;spacingLeft=4;spacingRight=4;overflow=hidden;rotatable=0;points=[[0,0.5],[1,0.5]];portConstraint=eastwest;rounded=0;shadow=0;html=0;" parent="ji8EGOoC9EdibpMoInvr-5" vertex="1">
          <mxGeometry y="52" width="160" height="26" as="geometry" />
        </mxCell>
        <mxCell id="ji8EGOoC9EdibpMoInvr-8" value="- ball : Ball" style="text;align=left;verticalAlign=top;spacingLeft=4;spacingRight=4;overflow=hidden;rotatable=0;points=[[0,0.5],[1,0.5]];portConstraint=eastwest;rounded=0;shadow=0;html=0;" parent="ji8EGOoC9EdibpMoInvr-5" vertex="1">
          <mxGeometry y="78" width="160" height="26" as="geometry" />
        </mxCell>
        <mxCell id="ji8EGOoC9EdibpMoInvr-9" value="" style="line;html=1;strokeWidth=1;align=left;verticalAlign=middle;spacingTop=-1;spacingLeft=3;spacingRight=3;rotatable=0;labelPosition=right;points=[];portConstraint=eastwest;" parent="ji8EGOoC9EdibpMoInvr-5" vertex="1">
          <mxGeometry y="104" width="160" height="8" as="geometry" />
        </mxCell>
        <mxCell id="ji8EGOoC9EdibpMoInvr-10" value="constructor" style="text;align=left;verticalAlign=top;spacingLeft=4;spacingRight=4;overflow=hidden;rotatable=0;points=[[0,0.5],[1,0.5]];portConstraint=eastwest;" parent="ji8EGOoC9EdibpMoInvr-5" vertex="1">
          <mxGeometry y="112" width="160" height="28" as="geometry" />
        </mxCell>
        <mxCell id="ji8EGOoC9EdibpMoInvr-11" value="drawField" style="text;align=left;verticalAlign=top;spacingLeft=4;spacingRight=4;overflow=hidden;rotatable=0;points=[[0,0.5],[1,0.5]];portConstraint=eastwest;" parent="ji8EGOoC9EdibpMoInvr-5" vertex="1">
          <mxGeometry y="140" width="160" height="28" as="geometry" />
        </mxCell>
        <mxCell id="ji8EGOoC9EdibpMoInvr-12" value="updateField" style="text;align=left;verticalAlign=top;spacingLeft=4;spacingRight=4;overflow=hidden;rotatable=0;points=[[0,0.5],[1,0.5]];portConstraint=eastwest;" parent="ji8EGOoC9EdibpMoInvr-5" vertex="1">
          <mxGeometry y="168" width="160" height="28" as="geometry" />
        </mxCell>
        <mxCell id="ji8EGOoC9EdibpMoInvr-13" value="updateBall" style="text;align=left;verticalAlign=top;spacingLeft=4;spacingRight=4;overflow=hidden;rotatable=0;points=[[0,0.5],[1,0.5]];portConstraint=eastwest;" parent="ji8EGOoC9EdibpMoInvr-5" vertex="1">
          <mxGeometry y="196" width="160" height="28" as="geometry" />
        </mxCell>
        <mxCell id="ji8EGOoC9EdibpMoInvr-14" value="checkWallHit" style="text;align=left;verticalAlign=top;spacingLeft=4;spacingRight=4;overflow=hidden;rotatable=0;points=[[0,0.5],[1,0.5]];portConstraint=eastwest;" parent="ji8EGOoC9EdibpMoInvr-5" vertex="1">
          <mxGeometry y="224" width="160" height="26" as="geometry" />
        </mxCell>
        <mxCell id="n-LFxdYQ2BIZRGmbfsYB-1" value="checkPaddleHit" style="text;align=left;verticalAlign=top;spacingLeft=4;spacingRight=4;overflow=hidden;rotatable=0;points=[[0,0.5],[1,0.5]];portConstraint=eastwest;" vertex="1" parent="ji8EGOoC9EdibpMoInvr-5">
          <mxGeometry y="250" width="160" height="26" as="geometry" />
        </mxCell>
        <mxCell id="n-LFxdYQ2BIZRGmbfsYB-3" value="checkTop" style="text;align=left;verticalAlign=top;spacingLeft=4;spacingRight=4;overflow=hidden;rotatable=0;points=[[0,0.5],[1,0.5]];portConstraint=eastwest;" vertex="1" parent="ji8EGOoC9EdibpMoInvr-5">
          <mxGeometry y="276" width="160" height="26" as="geometry" />
        </mxCell>
        <mxCell id="n-LFxdYQ2BIZRGmbfsYB-2" value="checkDown" style="text;align=left;verticalAlign=top;spacingLeft=4;spacingRight=4;overflow=hidden;rotatable=0;points=[[0,0.5],[1,0.5]];portConstraint=eastwest;" vertex="1" parent="ji8EGOoC9EdibpMoInvr-5">
          <mxGeometry y="302" width="160" height="26" as="geometry" />
        </mxCell>
        <mxCell id="n-LFxdYQ2BIZRGmbfsYB-4" value="checkScores" style="text;align=left;verticalAlign=top;spacingLeft=4;spacingRight=4;overflow=hidden;rotatable=0;points=[[0,0.5],[1,0.5]];portConstraint=eastwest;" vertex="1" parent="ji8EGOoC9EdibpMoInvr-5">
          <mxGeometry y="328" width="160" height="26" as="geometry" />
        </mxCell>
        <mxCell id="0cvISrzOzcKb3uD03qhu-14" value="Paddle" style="swimlane;fontStyle=2;align=center;verticalAlign=top;childLayout=stackLayout;horizontal=1;startSize=26;horizontalStack=0;resizeParent=1;resizeLast=0;collapsible=1;marginBottom=0;rounded=0;shadow=0;strokeWidth=1;" parent="WIyWlLk6GJQsqaUBKTNV-1" vertex="1">
          <mxGeometry x="320" y="530" width="160" height="310" as="geometry">
            <mxRectangle x="230" y="140" width="160" height="26" as="alternateBounds" />
          </mxGeometry>
        </mxCell>
        <mxCell id="0cvISrzOzcKb3uD03qhu-15" value="- x" style="text;align=left;verticalAlign=top;spacingLeft=4;spacingRight=4;overflow=hidden;rotatable=0;points=[[0,0.5],[1,0.5]];portConstraint=eastwest;" parent="0cvISrzOzcKb3uD03qhu-14" vertex="1">
          <mxGeometry y="26" width="160" height="26" as="geometry" />
        </mxCell>
        <mxCell id="0cvISrzOzcKb3uD03qhu-16" value="- y" style="text;align=left;verticalAlign=top;spacingLeft=4;spacingRight=4;overflow=hidden;rotatable=0;points=[[0,0.5],[1,0.5]];portConstraint=eastwest;rounded=0;shadow=0;html=0;" parent="0cvISrzOzcKb3uD03qhu-14" vertex="1">
          <mxGeometry y="52" width="160" height="26" as="geometry" />
        </mxCell>
        <mxCell id="0cvISrzOzcKb3uD03qhu-17" value="- width" style="text;align=left;verticalAlign=top;spacingLeft=4;spacingRight=4;overflow=hidden;rotatable=0;points=[[0,0.5],[1,0.5]];portConstraint=eastwest;rounded=0;shadow=0;html=0;" parent="0cvISrzOzcKb3uD03qhu-14" vertex="1">
          <mxGeometry y="78" width="160" height="26" as="geometry" />
        </mxCell>
        <mxCell id="0cvISrzOzcKb3uD03qhu-18" value="- height" style="text;align=left;verticalAlign=top;spacingLeft=4;spacingRight=4;overflow=hidden;rotatable=0;points=[[0,0.5],[1,0.5]];portConstraint=eastwest;" parent="0cvISrzOzcKb3uD03qhu-14" vertex="1">
          <mxGeometry y="104" width="160" height="26" as="geometry" />
        </mxCell>
        <mxCell id="0cvISrzOzcKb3uD03qhu-21" value="" style="line;html=1;strokeWidth=1;align=left;verticalAlign=middle;spacingTop=-1;spacingLeft=3;spacingRight=3;rotatable=0;labelPosition=right;points=[];portConstraint=eastwest;" parent="0cvISrzOzcKb3uD03qhu-14" vertex="1">
          <mxGeometry y="130" width="160" height="8" as="geometry" />
        </mxCell>
        <mxCell id="0cvISrzOzcKb3uD03qhu-22" value="constructor" style="text;align=left;verticalAlign=top;spacingLeft=4;spacingRight=4;overflow=hidden;rotatable=0;points=[[0,0.5],[1,0.5]];portConstraint=eastwest;" parent="0cvISrzOzcKb3uD03qhu-14" vertex="1">
          <mxGeometry y="138" width="160" height="28" as="geometry" />
        </mxCell>
        <mxCell id="0cvISrzOzcKb3uD03qhu-23" value="constructorParameters" style="text;align=left;verticalAlign=top;spacingLeft=4;spacingRight=4;overflow=hidden;rotatable=0;points=[[0,0.5],[1,0.5]];portConstraint=eastwest;" parent="0cvISrzOzcKb3uD03qhu-14" vertex="1">
          <mxGeometry y="166" width="160" height="28" as="geometry" />
        </mxCell>
        <mxCell id="0cvISrzOzcKb3uD03qhu-24" value="drawPaddle" style="text;align=left;verticalAlign=top;spacingLeft=4;spacingRight=4;overflow=hidden;rotatable=0;points=[[0,0.5],[1,0.5]];portConstraint=eastwest;" parent="0cvISrzOzcKb3uD03qhu-14" vertex="1">
          <mxGeometry y="194" width="160" height="28" as="geometry" />
        </mxCell>
        <mxCell id="0cvISrzOzcKb3uD03qhu-25" value="setY" style="text;align=left;verticalAlign=top;spacingLeft=4;spacingRight=4;overflow=hidden;rotatable=0;points=[[0,0.5],[1,0.5]];portConstraint=eastwest;" parent="0cvISrzOzcKb3uD03qhu-14" vertex="1">
          <mxGeometry y="222" width="160" height="28" as="geometry" />
        </mxCell>
        <mxCell id="0cvISrzOzcKb3uD03qhu-26" value="getX" style="text;align=left;verticalAlign=top;spacingLeft=4;spacingRight=4;overflow=hidden;rotatable=0;points=[[0,0.5],[1,0.5]];portConstraint=eastwest;" parent="0cvISrzOzcKb3uD03qhu-14" vertex="1">
          <mxGeometry y="250" width="160" height="28" as="geometry" />
        </mxCell>
        <mxCell id="0cvISrzOzcKb3uD03qhu-27" value="getWidth" style="text;align=left;verticalAlign=top;spacingLeft=4;spacingRight=4;overflow=hidden;rotatable=0;points=[[0,0.5],[1,0.5]];portConstraint=eastwest;" parent="0cvISrzOzcKb3uD03qhu-14" vertex="1">
          <mxGeometry y="278" width="160" height="28" as="geometry" />
        </mxCell>
        <mxCell id="0cvISrzOzcKb3uD03qhu-28" value="Player" style="swimlane;fontStyle=2;align=center;verticalAlign=top;childLayout=stackLayout;horizontal=1;startSize=26;horizontalStack=0;resizeParent=1;resizeLast=0;collapsible=1;marginBottom=0;rounded=0;shadow=0;strokeWidth=1;" parent="WIyWlLk6GJQsqaUBKTNV-1" vertex="1">
          <mxGeometry x="20" y="420" width="160" height="310" as="geometry">
            <mxRectangle x="230" y="140" width="160" height="26" as="alternateBounds" />
          </mxGeometry>
        </mxCell>
        <mxCell id="0cvISrzOzcKb3uD03qhu-29" value="- paddle : Paddle" style="text;align=left;verticalAlign=top;spacingLeft=4;spacingRight=4;overflow=hidden;rotatable=0;points=[[0,0.5],[1,0.5]];portConstraint=eastwest;" parent="0cvISrzOzcKb3uD03qhu-28" vertex="1">
          <mxGeometry y="26" width="160" height="26" as="geometry" />
        </mxCell>
        <mxCell id="0cvISrzOzcKb3uD03qhu-30" value="- score : int" style="text;align=left;verticalAlign=top;spacingLeft=4;spacingRight=4;overflow=hidden;rotatable=0;points=[[0,0.5],[1,0.5]];portConstraint=eastwest;rounded=0;shadow=0;html=0;" parent="0cvISrzOzcKb3uD03qhu-28" vertex="1">
          <mxGeometry y="52" width="160" height="26" as="geometry" />
        </mxCell>
        <mxCell id="n-LFxdYQ2BIZRGmbfsYB-51" value="- sets : int" style="text;align=left;verticalAlign=top;spacingLeft=4;spacingRight=4;overflow=hidden;rotatable=0;points=[[0,0.5],[1,0.5]];portConstraint=eastwest;rounded=0;shadow=0;html=0;" vertex="1" parent="0cvISrzOzcKb3uD03qhu-28">
          <mxGeometry y="78" width="160" height="26" as="geometry" />
        </mxCell>
        <mxCell id="0cvISrzOzcKb3uD03qhu-32" value="" style="line;html=1;strokeWidth=1;align=left;verticalAlign=middle;spacingTop=-1;spacingLeft=3;spacingRight=3;rotatable=0;labelPosition=right;points=[];portConstraint=eastwest;" parent="0cvISrzOzcKb3uD03qhu-28" vertex="1">
          <mxGeometry y="104" width="160" height="6" as="geometry" />
        </mxCell>
        <mxCell id="0cvISrzOzcKb3uD03qhu-33" value="constructor" style="text;align=left;verticalAlign=top;spacingLeft=4;spacingRight=4;overflow=hidden;rotatable=0;points=[[0,0.5],[1,0.5]];portConstraint=eastwest;" parent="0cvISrzOzcKb3uD03qhu-28" vertex="1">
          <mxGeometry y="110" width="160" height="28" as="geometry" />
        </mxCell>
        <mxCell id="0cvISrzOzcKb3uD03qhu-34" value="constructorParameters" style="text;align=left;verticalAlign=top;spacingLeft=4;spacingRight=4;overflow=hidden;rotatable=0;points=[[0,0.5],[1,0.5]];portConstraint=eastwest;" parent="0cvISrzOzcKb3uD03qhu-28" vertex="1">
          <mxGeometry y="138" width="160" height="28" as="geometry" />
        </mxCell>
        <mxCell id="0cvISrzOzcKb3uD03qhu-35" value="getPaddle" style="text;align=left;verticalAlign=top;spacingLeft=4;spacingRight=4;overflow=hidden;rotatable=0;points=[[0,0.5],[1,0.5]];portConstraint=eastwest;" parent="0cvISrzOzcKb3uD03qhu-28" vertex="1">
          <mxGeometry y="166" width="160" height="28" as="geometry" />
        </mxCell>
        <mxCell id="0cvISrzOzcKb3uD03qhu-36" value="getScore" style="text;align=left;verticalAlign=top;spacingLeft=4;spacingRight=4;overflow=hidden;rotatable=0;points=[[0,0.5],[1,0.5]];portConstraint=eastwest;" parent="0cvISrzOzcKb3uD03qhu-28" vertex="1">
          <mxGeometry y="194" width="160" height="28" as="geometry" />
        </mxCell>
        <mxCell id="0cvISrzOzcKb3uD03qhu-37" value="increaseScore" style="text;align=left;verticalAlign=top;spacingLeft=4;spacingRight=4;overflow=hidden;rotatable=0;points=[[0,0.5],[1,0.5]];portConstraint=eastwest;" parent="0cvISrzOzcKb3uD03qhu-28" vertex="1">
          <mxGeometry y="222" width="160" height="28" as="geometry" />
        </mxCell>
        <mxCell id="n-LFxdYQ2BIZRGmbfsYB-52" value="increaseSets" style="text;align=left;verticalAlign=top;spacingLeft=4;spacingRight=4;overflow=hidden;rotatable=0;points=[[0,0.5],[1,0.5]];portConstraint=eastwest;" vertex="1" parent="0cvISrzOzcKb3uD03qhu-28">
          <mxGeometry y="250" width="160" height="30" as="geometry" />
        </mxCell>
        <mxCell id="n-LFxdYQ2BIZRGmbfsYB-53" value="resetScore" style="text;align=left;verticalAlign=top;spacingLeft=4;spacingRight=4;overflow=hidden;rotatable=0;points=[[0,0.5],[1,0.5]];portConstraint=eastwest;" vertex="1" parent="0cvISrzOzcKb3uD03qhu-28">
          <mxGeometry y="280" width="160" height="30" as="geometry" />
        </mxCell>
        <mxCell id="n-LFxdYQ2BIZRGmbfsYB-0" value="&lt;font style=&quot;font-size: 72px;&quot;&gt;CLIENT&lt;/font&gt;" style="text;html=1;strokeColor=none;fillColor=none;align=center;verticalAlign=middle;whiteSpace=wrap;rounded=0;" vertex="1" parent="WIyWlLk6GJQsqaUBKTNV-1">
          <mxGeometry x="274" y="10" width="280" height="110" as="geometry" />
        </mxCell>
        <mxCell id="n-LFxdYQ2BIZRGmbfsYB-7" value="GamePanel" style="swimlane;fontStyle=2;align=center;verticalAlign=top;childLayout=stackLayout;horizontal=1;startSize=26;horizontalStack=0;resizeParent=1;resizeLast=0;collapsible=1;marginBottom=0;rounded=0;shadow=0;strokeWidth=1;" vertex="1" parent="WIyWlLk6GJQsqaUBKTNV-1">
          <mxGeometry x="620" y="40" width="160" height="144" as="geometry">
            <mxRectangle x="230" y="140" width="160" height="26" as="alternateBounds" />
          </mxGeometry>
        </mxCell>
        <mxCell id="n-LFxdYQ2BIZRGmbfsYB-8" value="- field : Field" style="text;align=left;verticalAlign=top;spacingLeft=4;spacingRight=4;overflow=hidden;rotatable=0;points=[[0,0.5],[1,0.5]];portConstraint=eastwest;" vertex="1" parent="n-LFxdYQ2BIZRGmbfsYB-7">
          <mxGeometry y="26" width="160" height="26" as="geometry" />
        </mxCell>
        <mxCell id="n-LFxdYQ2BIZRGmbfsYB-12" value="" style="line;html=1;strokeWidth=1;align=left;verticalAlign=middle;spacingTop=-1;spacingLeft=3;spacingRight=3;rotatable=0;labelPosition=right;points=[];portConstraint=eastwest;" vertex="1" parent="n-LFxdYQ2BIZRGmbfsYB-7">
          <mxGeometry y="52" width="160" height="8" as="geometry" />
        </mxCell>
        <mxCell id="n-LFxdYQ2BIZRGmbfsYB-14" value="constructorParameters" style="text;align=left;verticalAlign=top;spacingLeft=4;spacingRight=4;overflow=hidden;rotatable=0;points=[[0,0.5],[1,0.5]];portConstraint=eastwest;" vertex="1" parent="n-LFxdYQ2BIZRGmbfsYB-7">
          <mxGeometry y="60" width="160" height="28" as="geometry" />
        </mxCell>
        <mxCell id="n-LFxdYQ2BIZRGmbfsYB-15" value="paintComponent" style="text;align=left;verticalAlign=top;spacingLeft=4;spacingRight=4;overflow=hidden;rotatable=0;points=[[0,0.5],[1,0.5]];portConstraint=eastwest;" vertex="1" parent="n-LFxdYQ2BIZRGmbfsYB-7">
          <mxGeometry y="88" width="160" height="28" as="geometry" />
        </mxCell>
        <mxCell id="n-LFxdYQ2BIZRGmbfsYB-16" value="getPreferredSize" style="text;align=left;verticalAlign=top;spacingLeft=4;spacingRight=4;overflow=hidden;rotatable=0;points=[[0,0.5],[1,0.5]];portConstraint=eastwest;" vertex="1" parent="n-LFxdYQ2BIZRGmbfsYB-7">
          <mxGeometry y="116" width="160" height="28" as="geometry" />
        </mxCell>
        <mxCell id="n-LFxdYQ2BIZRGmbfsYB-19" value="GUI" style="swimlane;fontStyle=2;align=center;verticalAlign=top;childLayout=stackLayout;horizontal=1;startSize=26;horizontalStack=0;resizeParent=1;resizeLast=0;collapsible=1;marginBottom=0;rounded=0;shadow=0;strokeWidth=1;" vertex="1" parent="WIyWlLk6GJQsqaUBKTNV-1">
          <mxGeometry x="10" y="80" width="160" height="310" as="geometry">
            <mxRectangle x="230" y="140" width="160" height="26" as="alternateBounds" />
          </mxGeometry>
        </mxCell>
        <mxCell id="n-LFxdYQ2BIZRGmbfsYB-20" value="- finestra: JFrame" style="text;align=left;verticalAlign=top;spacingLeft=4;spacingRight=4;overflow=hidden;rotatable=0;points=[[0,0.5],[1,0.5]];portConstraint=eastwest;" vertex="1" parent="n-LFxdYQ2BIZRGmbfsYB-19">
          <mxGeometry y="26" width="160" height="26" as="geometry" />
        </mxCell>
        <mxCell id="n-LFxdYQ2BIZRGmbfsYB-25" value="- keyListener : Listener" style="text;align=left;verticalAlign=top;spacingLeft=4;spacingRight=4;overflow=hidden;rotatable=0;points=[[0,0.5],[1,0.5]];portConstraint=eastwest;" vertex="1" parent="n-LFxdYQ2BIZRGmbfsYB-19">
          <mxGeometry y="52" width="160" height="26" as="geometry" />
        </mxCell>
        <mxCell id="n-LFxdYQ2BIZRGmbfsYB-26" value="- gameTimer: Timer" style="text;align=left;verticalAlign=top;spacingLeft=4;spacingRight=4;overflow=hidden;rotatable=0;points=[[0,0.5],[1,0.5]];portConstraint=eastwest;" vertex="1" parent="n-LFxdYQ2BIZRGmbfsYB-19">
          <mxGeometry y="78" width="160" height="26" as="geometry" />
        </mxCell>
        <mxCell id="n-LFxdYQ2BIZRGmbfsYB-28" value="- type : char" style="text;align=left;verticalAlign=top;spacingLeft=4;spacingRight=4;overflow=hidden;rotatable=0;points=[[0,0.5],[1,0.5]];portConstraint=eastwest;" vertex="1" parent="n-LFxdYQ2BIZRGmbfsYB-19">
          <mxGeometry y="104" width="160" height="26" as="geometry" />
        </mxCell>
        <mxCell id="n-LFxdYQ2BIZRGmbfsYB-21" value="" style="line;html=1;strokeWidth=1;align=left;verticalAlign=middle;spacingTop=-1;spacingLeft=3;spacingRight=3;rotatable=0;labelPosition=right;points=[];portConstraint=eastwest;" vertex="1" parent="n-LFxdYQ2BIZRGmbfsYB-19">
          <mxGeometry y="130" width="160" height="18" as="geometry" />
        </mxCell>
        <mxCell id="n-LFxdYQ2BIZRGmbfsYB-22" value="constructorParameters" style="text;align=left;verticalAlign=top;spacingLeft=4;spacingRight=4;overflow=hidden;rotatable=0;points=[[0,0.5],[1,0.5]];portConstraint=eastwest;" vertex="1" parent="n-LFxdYQ2BIZRGmbfsYB-19">
          <mxGeometry y="148" width="160" height="28" as="geometry" />
        </mxCell>
        <mxCell id="n-LFxdYQ2BIZRGmbfsYB-23" value="stopGame" style="text;align=left;verticalAlign=top;spacingLeft=4;spacingRight=4;overflow=hidden;rotatable=0;points=[[0,0.5],[1,0.5]];portConstraint=eastwest;" vertex="1" parent="n-LFxdYQ2BIZRGmbfsYB-19">
          <mxGeometry y="176" width="160" height="28" as="geometry" />
        </mxCell>
        <mxCell id="n-LFxdYQ2BIZRGmbfsYB-24" value="chiudiFinestra" style="text;align=left;verticalAlign=top;spacingLeft=4;spacingRight=4;overflow=hidden;rotatable=0;points=[[0,0.5],[1,0.5]];portConstraint=eastwest;" vertex="1" parent="n-LFxdYQ2BIZRGmbfsYB-19">
          <mxGeometry y="204" width="160" height="26" as="geometry" />
        </mxCell>
        <mxCell id="n-LFxdYQ2BIZRGmbfsYB-31" value="creaFinestra" style="text;align=left;verticalAlign=top;spacingLeft=4;spacingRight=4;overflow=hidden;rotatable=0;points=[[0,0.5],[1,0.5]];portConstraint=eastwest;" vertex="1" parent="n-LFxdYQ2BIZRGmbfsYB-19">
          <mxGeometry y="230" width="160" height="26" as="geometry" />
        </mxCell>
        <mxCell id="n-LFxdYQ2BIZRGmbfsYB-30" value="getListener" style="text;align=left;verticalAlign=top;spacingLeft=4;spacingRight=4;overflow=hidden;rotatable=0;points=[[0,0.5],[1,0.5]];portConstraint=eastwest;" vertex="1" parent="n-LFxdYQ2BIZRGmbfsYB-19">
          <mxGeometry y="256" width="160" height="26" as="geometry" />
        </mxCell>
        <mxCell id="n-LFxdYQ2BIZRGmbfsYB-29" value="getFrame" style="text;align=left;verticalAlign=top;spacingLeft=4;spacingRight=4;overflow=hidden;rotatable=0;points=[[0,0.5],[1,0.5]];portConstraint=eastwest;" vertex="1" parent="n-LFxdYQ2BIZRGmbfsYB-19">
          <mxGeometry y="282" width="160" height="26" as="geometry" />
        </mxCell>
        <mxCell id="n-LFxdYQ2BIZRGmbfsYB-33" value="Listener" style="swimlane;fontStyle=2;align=center;verticalAlign=top;childLayout=stackLayout;horizontal=1;startSize=26;horizontalStack=0;resizeParent=1;resizeLast=0;collapsible=1;marginBottom=0;rounded=0;shadow=0;strokeWidth=1;" vertex="1" parent="WIyWlLk6GJQsqaUBKTNV-1">
          <mxGeometry x="194" y="140" width="186" height="200" as="geometry">
            <mxRectangle x="230" y="140" width="160" height="26" as="alternateBounds" />
          </mxGeometry>
        </mxCell>
        <mxCell id="n-LFxdYQ2BIZRGmbfsYB-34" value="- lastPressedKeyCode : int" style="text;align=left;verticalAlign=top;spacingLeft=4;spacingRight=4;overflow=hidden;rotatable=0;points=[[0,0.5],[1,0.5]];portConstraint=eastwest;" vertex="1" parent="n-LFxdYQ2BIZRGmbfsYB-33">
          <mxGeometry y="26" width="186" height="26" as="geometry" />
        </mxCell>
        <mxCell id="n-LFxdYQ2BIZRGmbfsYB-35" value="" style="line;html=1;strokeWidth=1;align=left;verticalAlign=middle;spacingTop=-1;spacingLeft=3;spacingRight=3;rotatable=0;labelPosition=right;points=[];portConstraint=eastwest;" vertex="1" parent="n-LFxdYQ2BIZRGmbfsYB-33">
          <mxGeometry y="52" width="186" height="8" as="geometry" />
        </mxCell>
        <mxCell id="n-LFxdYQ2BIZRGmbfsYB-36" value="+ keyPressed" style="text;align=left;verticalAlign=top;spacingLeft=4;spacingRight=4;overflow=hidden;rotatable=0;points=[[0,0.5],[1,0.5]];portConstraint=eastwest;" vertex="1" parent="n-LFxdYQ2BIZRGmbfsYB-33">
          <mxGeometry y="60" width="186" height="28" as="geometry" />
        </mxCell>
        <mxCell id="n-LFxdYQ2BIZRGmbfsYB-37" value="+ keyReleased" style="text;align=left;verticalAlign=top;spacingLeft=4;spacingRight=4;overflow=hidden;rotatable=0;points=[[0,0.5],[1,0.5]];portConstraint=eastwest;" vertex="1" parent="n-LFxdYQ2BIZRGmbfsYB-33">
          <mxGeometry y="88" width="186" height="28" as="geometry" />
        </mxCell>
        <mxCell id="n-LFxdYQ2BIZRGmbfsYB-38" value="+ keyTyped" style="text;align=left;verticalAlign=top;spacingLeft=4;spacingRight=4;overflow=hidden;rotatable=0;points=[[0,0.5],[1,0.5]];portConstraint=eastwest;" vertex="1" parent="n-LFxdYQ2BIZRGmbfsYB-33">
          <mxGeometry y="116" width="186" height="34" as="geometry" />
        </mxCell>
        <mxCell id="n-LFxdYQ2BIZRGmbfsYB-40" value="+ getLastKeyPressed" style="text;align=left;verticalAlign=top;spacingLeft=4;spacingRight=4;overflow=hidden;rotatable=0;points=[[0,0.5],[1,0.5]];portConstraint=eastwest;" vertex="1" parent="n-LFxdYQ2BIZRGmbfsYB-33">
          <mxGeometry y="150" width="186" height="30" as="geometry" />
        </mxCell>
        <mxCell id="n-LFxdYQ2BIZRGmbfsYB-41" value="LoadingPanel" style="swimlane;fontStyle=2;align=center;verticalAlign=top;childLayout=stackLayout;horizontal=1;startSize=26;horizontalStack=0;resizeParent=1;resizeLast=0;collapsible=1;marginBottom=0;rounded=0;shadow=0;strokeWidth=1;" vertex="1" parent="WIyWlLk6GJQsqaUBKTNV-1">
          <mxGeometry x="580" y="890" width="190" height="170" as="geometry">
            <mxRectangle x="230" y="140" width="160" height="26" as="alternateBounds" />
          </mxGeometry>
        </mxCell>
        <mxCell id="n-LFxdYQ2BIZRGmbfsYB-42" value="- clientsConnected : Boolean" style="text;align=left;verticalAlign=top;spacingLeft=4;spacingRight=4;overflow=hidden;rotatable=0;points=[[0,0.5],[1,0.5]];portConstraint=eastwest;" vertex="1" parent="n-LFxdYQ2BIZRGmbfsYB-41">
          <mxGeometry y="26" width="190" height="26" as="geometry" />
        </mxCell>
        <mxCell id="n-LFxdYQ2BIZRGmbfsYB-43" value="- countdownTime : int" style="text;align=left;verticalAlign=top;spacingLeft=4;spacingRight=4;overflow=hidden;rotatable=0;points=[[0,0.5],[1,0.5]];portConstraint=eastwest;rounded=0;shadow=0;html=0;" vertex="1" parent="n-LFxdYQ2BIZRGmbfsYB-41">
          <mxGeometry y="52" width="190" height="26" as="geometry" />
        </mxCell>
        <mxCell id="n-LFxdYQ2BIZRGmbfsYB-44" value="" style="line;html=1;strokeWidth=1;align=left;verticalAlign=middle;spacingTop=-1;spacingLeft=3;spacingRight=3;rotatable=0;labelPosition=right;points=[];portConstraint=eastwest;" vertex="1" parent="n-LFxdYQ2BIZRGmbfsYB-41">
          <mxGeometry y="78" width="190" height="8" as="geometry" />
        </mxCell>
        <mxCell id="n-LFxdYQ2BIZRGmbfsYB-46" value="constructorParameters" style="text;align=left;verticalAlign=top;spacingLeft=4;spacingRight=4;overflow=hidden;rotatable=0;points=[[0,0.5],[1,0.5]];portConstraint=eastwest;" vertex="1" parent="n-LFxdYQ2BIZRGmbfsYB-41">
          <mxGeometry y="86" width="190" height="28" as="geometry" />
        </mxCell>
        <mxCell id="n-LFxdYQ2BIZRGmbfsYB-47" value="getPreferredSize" style="text;align=left;verticalAlign=top;spacingLeft=4;spacingRight=4;overflow=hidden;rotatable=0;points=[[0,0.5],[1,0.5]];portConstraint=eastwest;" vertex="1" parent="n-LFxdYQ2BIZRGmbfsYB-41">
          <mxGeometry y="114" width="190" height="28" as="geometry" />
        </mxCell>
        <mxCell id="n-LFxdYQ2BIZRGmbfsYB-48" value="paintComponent" style="text;align=left;verticalAlign=top;spacingLeft=4;spacingRight=4;overflow=hidden;rotatable=0;points=[[0,0.5],[1,0.5]];portConstraint=eastwest;" vertex="1" parent="n-LFxdYQ2BIZRGmbfsYB-41">
          <mxGeometry y="142" width="190" height="28" as="geometry" />
        </mxCell>
        <mxCell id="n-LFxdYQ2BIZRGmbfsYB-54" value="TcpClient" style="swimlane;fontStyle=2;align=center;verticalAlign=top;childLayout=stackLayout;horizontal=1;startSize=26;horizontalStack=0;resizeParent=1;resizeLast=0;collapsible=1;marginBottom=0;rounded=0;shadow=0;strokeWidth=1;" vertex="1" parent="WIyWlLk6GJQsqaUBKTNV-1">
          <mxGeometry x="50" y="760" width="160" height="250" as="geometry">
            <mxRectangle x="230" y="140" width="160" height="26" as="alternateBounds" />
          </mxGeometry>
        </mxCell>
        <mxCell id="n-LFxdYQ2BIZRGmbfsYB-55" value="- clientSocket : Socket" style="text;align=left;verticalAlign=top;spacingLeft=4;spacingRight=4;overflow=hidden;rotatable=0;points=[[0,0.5],[1,0.5]];portConstraint=eastwest;" vertex="1" parent="n-LFxdYQ2BIZRGmbfsYB-54">
          <mxGeometry y="26" width="160" height="26" as="geometry" />
        </mxCell>
        <mxCell id="n-LFxdYQ2BIZRGmbfsYB-56" value="- in : BufferedReader" style="text;align=left;verticalAlign=top;spacingLeft=4;spacingRight=4;overflow=hidden;rotatable=0;points=[[0,0.5],[1,0.5]];portConstraint=eastwest;rounded=0;shadow=0;html=0;" vertex="1" parent="n-LFxdYQ2BIZRGmbfsYB-54">
          <mxGeometry y="52" width="160" height="26" as="geometry" />
        </mxCell>
        <mxCell id="n-LFxdYQ2BIZRGmbfsYB-57" value="- out : PrintWriter" style="text;align=left;verticalAlign=top;spacingLeft=4;spacingRight=4;overflow=hidden;rotatable=0;points=[[0,0.5],[1,0.5]];portConstraint=eastwest;rounded=0;shadow=0;html=0;" vertex="1" parent="n-LFxdYQ2BIZRGmbfsYB-54">
          <mxGeometry y="78" width="160" height="26" as="geometry" />
        </mxCell>
        <mxCell id="n-LFxdYQ2BIZRGmbfsYB-58" value="- response : String" style="text;align=left;verticalAlign=top;spacingLeft=4;spacingRight=4;overflow=hidden;rotatable=0;points=[[0,0.5],[1,0.5]];portConstraint=eastwest;" vertex="1" parent="n-LFxdYQ2BIZRGmbfsYB-54">
          <mxGeometry y="104" width="160" height="26" as="geometry" />
        </mxCell>
        <mxCell id="n-LFxdYQ2BIZRGmbfsYB-59" value="" style="line;html=1;strokeWidth=1;align=left;verticalAlign=middle;spacingTop=-1;spacingLeft=3;spacingRight=3;rotatable=0;labelPosition=right;points=[];portConstraint=eastwest;" vertex="1" parent="n-LFxdYQ2BIZRGmbfsYB-54">
          <mxGeometry y="130" width="160" height="8" as="geometry" />
        </mxCell>
        <mxCell id="n-LFxdYQ2BIZRGmbfsYB-61" value="constructorParameters" style="text;align=left;verticalAlign=top;spacingLeft=4;spacingRight=4;overflow=hidden;rotatable=0;points=[[0,0.5],[1,0.5]];portConstraint=eastwest;" vertex="1" parent="n-LFxdYQ2BIZRGmbfsYB-54">
          <mxGeometry y="138" width="160" height="28" as="geometry" />
        </mxCell>
        <mxCell id="n-LFxdYQ2BIZRGmbfsYB-62" value="startGame" style="text;align=left;verticalAlign=top;spacingLeft=4;spacingRight=4;overflow=hidden;rotatable=0;points=[[0,0.5],[1,0.5]];portConstraint=eastwest;" vertex="1" parent="n-LFxdYQ2BIZRGmbfsYB-54">
          <mxGeometry y="166" width="160" height="28" as="geometry" />
        </mxCell>
        <mxCell id="n-LFxdYQ2BIZRGmbfsYB-63" value="receiveFirstField" style="text;align=left;verticalAlign=top;spacingLeft=4;spacingRight=4;overflow=hidden;rotatable=0;points=[[0,0.5],[1,0.5]];portConstraint=eastwest;" vertex="1" parent="n-LFxdYQ2BIZRGmbfsYB-54">
          <mxGeometry y="194" width="160" height="28" as="geometry" />
        </mxCell>
        <mxCell id="n-LFxdYQ2BIZRGmbfsYB-64" value="updateField" style="text;align=left;verticalAlign=top;spacingLeft=4;spacingRight=4;overflow=hidden;rotatable=0;points=[[0,0.5],[1,0.5]];portConstraint=eastwest;" vertex="1" parent="n-LFxdYQ2BIZRGmbfsYB-54">
          <mxGeometry y="222" width="160" height="28" as="geometry" />
        </mxCell>
        <mxCell id="n-LFxdYQ2BIZRGmbfsYB-66" value="ThreadUpdate" style="swimlane;fontStyle=2;align=center;verticalAlign=top;childLayout=stackLayout;horizontal=1;startSize=26;horizontalStack=0;resizeParent=1;resizeLast=0;collapsible=1;marginBottom=0;rounded=0;shadow=0;strokeWidth=1;" vertex="1" parent="WIyWlLk6GJQsqaUBKTNV-1">
          <mxGeometry x="305" y="900" width="190" height="116" as="geometry">
            <mxRectangle x="230" y="140" width="160" height="26" as="alternateBounds" />
          </mxGeometry>
        </mxCell>
        <mxCell id="n-LFxdYQ2BIZRGmbfsYB-67" value="- field : Field" style="text;align=left;verticalAlign=top;spacingLeft=4;spacingRight=4;overflow=hidden;rotatable=0;points=[[0,0.5],[1,0.5]];portConstraint=eastwest;" vertex="1" parent="n-LFxdYQ2BIZRGmbfsYB-66">
          <mxGeometry y="26" width="190" height="26" as="geometry" />
        </mxCell>
        <mxCell id="n-LFxdYQ2BIZRGmbfsYB-69" value="" style="line;html=1;strokeWidth=1;align=left;verticalAlign=middle;spacingTop=-1;spacingLeft=3;spacingRight=3;rotatable=0;labelPosition=right;points=[];portConstraint=eastwest;" vertex="1" parent="n-LFxdYQ2BIZRGmbfsYB-66">
          <mxGeometry y="52" width="190" height="8" as="geometry" />
        </mxCell>
        <mxCell id="n-LFxdYQ2BIZRGmbfsYB-70" value="constructorParameters" style="text;align=left;verticalAlign=top;spacingLeft=4;spacingRight=4;overflow=hidden;rotatable=0;points=[[0,0.5],[1,0.5]];portConstraint=eastwest;" vertex="1" parent="n-LFxdYQ2BIZRGmbfsYB-66">
          <mxGeometry y="60" width="190" height="28" as="geometry" />
        </mxCell>
        <mxCell id="n-LFxdYQ2BIZRGmbfsYB-72" value="+ run" style="text;align=left;verticalAlign=top;spacingLeft=4;spacingRight=4;overflow=hidden;rotatable=0;points=[[0,0.5],[1,0.5]];portConstraint=eastwest;" vertex="1" parent="n-LFxdYQ2BIZRGmbfsYB-66">
          <mxGeometry y="88" width="190" height="28" as="geometry" />
        </mxCell>
        <mxCell id="n-LFxdYQ2BIZRGmbfsYB-73" value="XML" style="swimlane;fontStyle=2;align=center;verticalAlign=top;childLayout=stackLayout;horizontal=1;startSize=26;horizontalStack=0;resizeParent=1;resizeLast=0;collapsible=1;marginBottom=0;rounded=0;shadow=0;strokeWidth=1;" vertex="1" parent="WIyWlLk6GJQsqaUBKTNV-1">
          <mxGeometry x="190" y="1030" width="190" height="116" as="geometry">
            <mxRectangle x="230" y="140" width="160" height="26" as="alternateBounds" />
          </mxGeometry>
        </mxCell>
        <mxCell id="n-LFxdYQ2BIZRGmbfsYB-74" value="- tmpFileName : String" style="text;align=left;verticalAlign=top;spacingLeft=4;spacingRight=4;overflow=hidden;rotatable=0;points=[[0,0.5],[1,0.5]];portConstraint=eastwest;" vertex="1" parent="n-LFxdYQ2BIZRGmbfsYB-73">
          <mxGeometry y="26" width="190" height="26" as="geometry" />
        </mxCell>
        <mxCell id="n-LFxdYQ2BIZRGmbfsYB-75" value="" style="line;html=1;strokeWidth=1;align=left;verticalAlign=middle;spacingTop=-1;spacingLeft=3;spacingRight=3;rotatable=0;labelPosition=right;points=[];portConstraint=eastwest;" vertex="1" parent="n-LFxdYQ2BIZRGmbfsYB-73">
          <mxGeometry y="52" width="190" height="8" as="geometry" />
        </mxCell>
        <mxCell id="n-LFxdYQ2BIZRGmbfsYB-76" value="constructorParameters" style="text;align=left;verticalAlign=top;spacingLeft=4;spacingRight=4;overflow=hidden;rotatable=0;points=[[0,0.5],[1,0.5]];portConstraint=eastwest;" vertex="1" parent="n-LFxdYQ2BIZRGmbfsYB-73">
          <mxGeometry y="60" width="190" height="28" as="geometry" />
        </mxCell>
        <mxCell id="n-LFxdYQ2BIZRGmbfsYB-77" value="+ run" style="text;align=left;verticalAlign=top;spacingLeft=4;spacingRight=4;overflow=hidden;rotatable=0;points=[[0,0.5],[1,0.5]];portConstraint=eastwest;" vertex="1" parent="n-LFxdYQ2BIZRGmbfsYB-73">
          <mxGeometry y="88" width="190" height="28" as="geometry" />
        </mxCell>
        <mxCell id="n-LFxdYQ2BIZRGmbfsYB-181" value="Ball" style="swimlane;fontStyle=2;align=center;verticalAlign=top;childLayout=stackLayout;horizontal=1;startSize=26;horizontalStack=0;resizeParent=1;resizeLast=0;collapsible=1;marginBottom=0;rounded=0;shadow=0;strokeWidth=1;" vertex="1" parent="WIyWlLk6GJQsqaUBKTNV-1">
          <mxGeometry x="640" y="1470" width="160" height="380" as="geometry">
            <mxRectangle x="230" y="140" width="160" height="26" as="alternateBounds" />
          </mxGeometry>
        </mxCell>
        <mxCell id="n-LFxdYQ2BIZRGmbfsYB-182" value="- x : double" style="text;align=left;verticalAlign=top;spacingLeft=4;spacingRight=4;overflow=hidden;rotatable=0;points=[[0,0.5],[1,0.5]];portConstraint=eastwest;" vertex="1" parent="n-LFxdYQ2BIZRGmbfsYB-181">
          <mxGeometry y="26" width="160" height="26" as="geometry" />
        </mxCell>
        <mxCell id="n-LFxdYQ2BIZRGmbfsYB-183" value="- y : double" style="text;align=left;verticalAlign=top;spacingLeft=4;spacingRight=4;overflow=hidden;rotatable=0;points=[[0,0.5],[1,0.5]];portConstraint=eastwest;rounded=0;shadow=0;html=0;" vertex="1" parent="n-LFxdYQ2BIZRGmbfsYB-181">
          <mxGeometry y="52" width="160" height="26" as="geometry" />
        </mxCell>
        <mxCell id="n-LFxdYQ2BIZRGmbfsYB-184" value="- radius : int" style="text;align=left;verticalAlign=top;spacingLeft=4;spacingRight=4;overflow=hidden;rotatable=0;points=[[0,0.5],[1,0.5]];portConstraint=eastwest;rounded=0;shadow=0;html=0;" vertex="1" parent="n-LFxdYQ2BIZRGmbfsYB-181">
          <mxGeometry y="78" width="160" height="26" as="geometry" />
        </mxCell>
        <mxCell id="n-LFxdYQ2BIZRGmbfsYB-185" value="- angle : int" style="text;align=left;verticalAlign=top;spacingLeft=4;spacingRight=4;overflow=hidden;rotatable=0;points=[[0,0.5],[1,0.5]];portConstraint=eastwest;" vertex="1" parent="n-LFxdYQ2BIZRGmbfsYB-181">
          <mxGeometry y="104" width="160" height="26" as="geometry" />
        </mxCell>
        <mxCell id="n-LFxdYQ2BIZRGmbfsYB-186" value="- directionX : char" style="text;align=left;verticalAlign=top;spacingLeft=4;spacingRight=4;overflow=hidden;rotatable=0;points=[[0,0.5],[1,0.5]];portConstraint=eastwest;" vertex="1" parent="n-LFxdYQ2BIZRGmbfsYB-181">
          <mxGeometry y="130" width="160" height="28" as="geometry" />
        </mxCell>
        <mxCell id="n-LFxdYQ2BIZRGmbfsYB-187" value="- directionY : char" style="text;align=left;verticalAlign=top;spacingLeft=4;spacingRight=4;overflow=hidden;rotatable=0;points=[[0,0.5],[1,0.5]];portConstraint=eastwest;" vertex="1" parent="n-LFxdYQ2BIZRGmbfsYB-181">
          <mxGeometry y="158" width="160" height="28" as="geometry" />
        </mxCell>
        <mxCell id="n-LFxdYQ2BIZRGmbfsYB-284" value="- BALL_SPEED : int" style="text;align=left;verticalAlign=top;spacingLeft=4;spacingRight=4;overflow=hidden;rotatable=0;points=[[0,0.5],[1,0.5]];portConstraint=eastwest;" vertex="1" parent="n-LFxdYQ2BIZRGmbfsYB-181">
          <mxGeometry y="186" width="160" height="28" as="geometry" />
        </mxCell>
        <mxCell id="n-LFxdYQ2BIZRGmbfsYB-188" value="" style="line;html=1;strokeWidth=1;align=left;verticalAlign=middle;spacingTop=-1;spacingLeft=3;spacingRight=3;rotatable=0;labelPosition=right;points=[];portConstraint=eastwest;" vertex="1" parent="n-LFxdYQ2BIZRGmbfsYB-181">
          <mxGeometry y="214" width="160" height="6" as="geometry" />
        </mxCell>
        <mxCell id="n-LFxdYQ2BIZRGmbfsYB-189" value="constructor" style="text;align=left;verticalAlign=top;spacingLeft=4;spacingRight=4;overflow=hidden;rotatable=0;points=[[0,0.5],[1,0.5]];portConstraint=eastwest;" vertex="1" parent="n-LFxdYQ2BIZRGmbfsYB-181">
          <mxGeometry y="220" width="160" height="28" as="geometry" />
        </mxCell>
        <mxCell id="n-LFxdYQ2BIZRGmbfsYB-285" value="constructorParameters" style="text;align=left;verticalAlign=top;spacingLeft=4;spacingRight=4;overflow=hidden;rotatable=0;points=[[0,0.5],[1,0.5]];portConstraint=eastwest;" vertex="1" parent="n-LFxdYQ2BIZRGmbfsYB-181">
          <mxGeometry y="248" width="160" height="28" as="geometry" />
        </mxCell>
        <mxCell id="n-LFxdYQ2BIZRGmbfsYB-191" value="generateBall" style="text;align=left;verticalAlign=top;spacingLeft=4;spacingRight=4;overflow=hidden;rotatable=0;points=[[0,0.5],[1,0.5]];portConstraint=eastwest;" vertex="1" parent="n-LFxdYQ2BIZRGmbfsYB-181">
          <mxGeometry y="276" width="160" height="28" as="geometry" />
        </mxCell>
        <mxCell id="n-LFxdYQ2BIZRGmbfsYB-192" value="updateBallCoordiates" style="text;align=left;verticalAlign=top;spacingLeft=4;spacingRight=4;overflow=hidden;rotatable=0;points=[[0,0.5],[1,0.5]];portConstraint=eastwest;" vertex="1" parent="n-LFxdYQ2BIZRGmbfsYB-181">
          <mxGeometry y="304" width="160" height="28" as="geometry" />
        </mxCell>
        <mxCell id="n-LFxdYQ2BIZRGmbfsYB-190" value="drawBall" style="text;align=left;verticalAlign=top;spacingLeft=4;spacingRight=4;overflow=hidden;rotatable=0;points=[[0,0.5],[1,0.5]];portConstraint=eastwest;" vertex="1" parent="n-LFxdYQ2BIZRGmbfsYB-181">
          <mxGeometry y="332" width="160" height="28" as="geometry" />
        </mxCell>
        <mxCell id="n-LFxdYQ2BIZRGmbfsYB-193" value="Field" style="swimlane;fontStyle=2;align=center;verticalAlign=top;childLayout=stackLayout;horizontal=1;startSize=26;horizontalStack=0;resizeParent=1;resizeLast=0;collapsible=1;marginBottom=0;rounded=0;shadow=0;strokeWidth=1;" vertex="1" parent="WIyWlLk6GJQsqaUBKTNV-1">
          <mxGeometry x="430" y="1352" width="160" height="360" as="geometry">
            <mxRectangle x="230" y="140" width="160" height="26" as="alternateBounds" />
          </mxGeometry>
        </mxCell>
        <mxCell id="n-LFxdYQ2BIZRGmbfsYB-194" value="- playerOne : Player" style="text;align=left;verticalAlign=top;spacingLeft=4;spacingRight=4;overflow=hidden;rotatable=0;points=[[0,0.5],[1,0.5]];portConstraint=eastwest;" vertex="1" parent="n-LFxdYQ2BIZRGmbfsYB-193">
          <mxGeometry y="26" width="160" height="26" as="geometry" />
        </mxCell>
        <mxCell id="n-LFxdYQ2BIZRGmbfsYB-195" value="- playerTwo" style="text;align=left;verticalAlign=top;spacingLeft=4;spacingRight=4;overflow=hidden;rotatable=0;points=[[0,0.5],[1,0.5]];portConstraint=eastwest;rounded=0;shadow=0;html=0;" vertex="1" parent="n-LFxdYQ2BIZRGmbfsYB-193">
          <mxGeometry y="52" width="160" height="26" as="geometry" />
        </mxCell>
        <mxCell id="n-LFxdYQ2BIZRGmbfsYB-196" value="- ball : Ball" style="text;align=left;verticalAlign=top;spacingLeft=4;spacingRight=4;overflow=hidden;rotatable=0;points=[[0,0.5],[1,0.5]];portConstraint=eastwest;rounded=0;shadow=0;html=0;" vertex="1" parent="n-LFxdYQ2BIZRGmbfsYB-193">
          <mxGeometry y="78" width="160" height="26" as="geometry" />
        </mxCell>
        <mxCell id="n-LFxdYQ2BIZRGmbfsYB-197" value="" style="line;html=1;strokeWidth=1;align=left;verticalAlign=middle;spacingTop=-1;spacingLeft=3;spacingRight=3;rotatable=0;labelPosition=right;points=[];portConstraint=eastwest;" vertex="1" parent="n-LFxdYQ2BIZRGmbfsYB-193">
          <mxGeometry y="104" width="160" height="8" as="geometry" />
        </mxCell>
        <mxCell id="n-LFxdYQ2BIZRGmbfsYB-198" value="constructor" style="text;align=left;verticalAlign=top;spacingLeft=4;spacingRight=4;overflow=hidden;rotatable=0;points=[[0,0.5],[1,0.5]];portConstraint=eastwest;" vertex="1" parent="n-LFxdYQ2BIZRGmbfsYB-193">
          <mxGeometry y="112" width="160" height="28" as="geometry" />
        </mxCell>
        <mxCell id="n-LFxdYQ2BIZRGmbfsYB-199" value="drawField" style="text;align=left;verticalAlign=top;spacingLeft=4;spacingRight=4;overflow=hidden;rotatable=0;points=[[0,0.5],[1,0.5]];portConstraint=eastwest;" vertex="1" parent="n-LFxdYQ2BIZRGmbfsYB-193">
          <mxGeometry y="140" width="160" height="28" as="geometry" />
        </mxCell>
        <mxCell id="n-LFxdYQ2BIZRGmbfsYB-200" value="updateField" style="text;align=left;verticalAlign=top;spacingLeft=4;spacingRight=4;overflow=hidden;rotatable=0;points=[[0,0.5],[1,0.5]];portConstraint=eastwest;" vertex="1" parent="n-LFxdYQ2BIZRGmbfsYB-193">
          <mxGeometry y="168" width="160" height="28" as="geometry" />
        </mxCell>
        <mxCell id="n-LFxdYQ2BIZRGmbfsYB-201" value="updateBall" style="text;align=left;verticalAlign=top;spacingLeft=4;spacingRight=4;overflow=hidden;rotatable=0;points=[[0,0.5],[1,0.5]];portConstraint=eastwest;" vertex="1" parent="n-LFxdYQ2BIZRGmbfsYB-193">
          <mxGeometry y="196" width="160" height="28" as="geometry" />
        </mxCell>
        <mxCell id="n-LFxdYQ2BIZRGmbfsYB-202" value="checkWallHit" style="text;align=left;verticalAlign=top;spacingLeft=4;spacingRight=4;overflow=hidden;rotatable=0;points=[[0,0.5],[1,0.5]];portConstraint=eastwest;" vertex="1" parent="n-LFxdYQ2BIZRGmbfsYB-193">
          <mxGeometry y="224" width="160" height="26" as="geometry" />
        </mxCell>
        <mxCell id="n-LFxdYQ2BIZRGmbfsYB-203" value="checkPaddleHit" style="text;align=left;verticalAlign=top;spacingLeft=4;spacingRight=4;overflow=hidden;rotatable=0;points=[[0,0.5],[1,0.5]];portConstraint=eastwest;" vertex="1" parent="n-LFxdYQ2BIZRGmbfsYB-193">
          <mxGeometry y="250" width="160" height="26" as="geometry" />
        </mxCell>
        <mxCell id="n-LFxdYQ2BIZRGmbfsYB-204" value="checkTop" style="text;align=left;verticalAlign=top;spacingLeft=4;spacingRight=4;overflow=hidden;rotatable=0;points=[[0,0.5],[1,0.5]];portConstraint=eastwest;" vertex="1" parent="n-LFxdYQ2BIZRGmbfsYB-193">
          <mxGeometry y="276" width="160" height="26" as="geometry" />
        </mxCell>
        <mxCell id="n-LFxdYQ2BIZRGmbfsYB-205" value="checkDown" style="text;align=left;verticalAlign=top;spacingLeft=4;spacingRight=4;overflow=hidden;rotatable=0;points=[[0,0.5],[1,0.5]];portConstraint=eastwest;" vertex="1" parent="n-LFxdYQ2BIZRGmbfsYB-193">
          <mxGeometry y="302" width="160" height="26" as="geometry" />
        </mxCell>
        <mxCell id="n-LFxdYQ2BIZRGmbfsYB-206" value="checkScores" style="text;align=left;verticalAlign=top;spacingLeft=4;spacingRight=4;overflow=hidden;rotatable=0;points=[[0,0.5],[1,0.5]];portConstraint=eastwest;" vertex="1" parent="n-LFxdYQ2BIZRGmbfsYB-193">
          <mxGeometry y="328" width="160" height="26" as="geometry" />
        </mxCell>
        <mxCell id="n-LFxdYQ2BIZRGmbfsYB-207" value="Paddle" style="swimlane;fontStyle=2;align=center;verticalAlign=top;childLayout=stackLayout;horizontal=1;startSize=26;horizontalStack=0;resizeParent=1;resizeLast=0;collapsible=1;marginBottom=0;rounded=0;shadow=0;strokeWidth=1;" vertex="1" parent="WIyWlLk6GJQsqaUBKTNV-1">
          <mxGeometry x="350" y="1722" width="160" height="310" as="geometry">
            <mxRectangle x="230" y="140" width="160" height="26" as="alternateBounds" />
          </mxGeometry>
        </mxCell>
        <mxCell id="n-LFxdYQ2BIZRGmbfsYB-208" value="- x" style="text;align=left;verticalAlign=top;spacingLeft=4;spacingRight=4;overflow=hidden;rotatable=0;points=[[0,0.5],[1,0.5]];portConstraint=eastwest;" vertex="1" parent="n-LFxdYQ2BIZRGmbfsYB-207">
          <mxGeometry y="26" width="160" height="26" as="geometry" />
        </mxCell>
        <mxCell id="n-LFxdYQ2BIZRGmbfsYB-209" value="- y" style="text;align=left;verticalAlign=top;spacingLeft=4;spacingRight=4;overflow=hidden;rotatable=0;points=[[0,0.5],[1,0.5]];portConstraint=eastwest;rounded=0;shadow=0;html=0;" vertex="1" parent="n-LFxdYQ2BIZRGmbfsYB-207">
          <mxGeometry y="52" width="160" height="26" as="geometry" />
        </mxCell>
        <mxCell id="n-LFxdYQ2BIZRGmbfsYB-210" value="- width" style="text;align=left;verticalAlign=top;spacingLeft=4;spacingRight=4;overflow=hidden;rotatable=0;points=[[0,0.5],[1,0.5]];portConstraint=eastwest;rounded=0;shadow=0;html=0;" vertex="1" parent="n-LFxdYQ2BIZRGmbfsYB-207">
          <mxGeometry y="78" width="160" height="26" as="geometry" />
        </mxCell>
        <mxCell id="n-LFxdYQ2BIZRGmbfsYB-211" value="- height" style="text;align=left;verticalAlign=top;spacingLeft=4;spacingRight=4;overflow=hidden;rotatable=0;points=[[0,0.5],[1,0.5]];portConstraint=eastwest;" vertex="1" parent="n-LFxdYQ2BIZRGmbfsYB-207">
          <mxGeometry y="104" width="160" height="26" as="geometry" />
        </mxCell>
        <mxCell id="n-LFxdYQ2BIZRGmbfsYB-212" value="" style="line;html=1;strokeWidth=1;align=left;verticalAlign=middle;spacingTop=-1;spacingLeft=3;spacingRight=3;rotatable=0;labelPosition=right;points=[];portConstraint=eastwest;" vertex="1" parent="n-LFxdYQ2BIZRGmbfsYB-207">
          <mxGeometry y="130" width="160" height="8" as="geometry" />
        </mxCell>
        <mxCell id="n-LFxdYQ2BIZRGmbfsYB-213" value="constructor" style="text;align=left;verticalAlign=top;spacingLeft=4;spacingRight=4;overflow=hidden;rotatable=0;points=[[0,0.5],[1,0.5]];portConstraint=eastwest;" vertex="1" parent="n-LFxdYQ2BIZRGmbfsYB-207">
          <mxGeometry y="138" width="160" height="28" as="geometry" />
        </mxCell>
        <mxCell id="n-LFxdYQ2BIZRGmbfsYB-214" value="constructorParameters" style="text;align=left;verticalAlign=top;spacingLeft=4;spacingRight=4;overflow=hidden;rotatable=0;points=[[0,0.5],[1,0.5]];portConstraint=eastwest;" vertex="1" parent="n-LFxdYQ2BIZRGmbfsYB-207">
          <mxGeometry y="166" width="160" height="28" as="geometry" />
        </mxCell>
        <mxCell id="n-LFxdYQ2BIZRGmbfsYB-215" value="drawPaddle" style="text;align=left;verticalAlign=top;spacingLeft=4;spacingRight=4;overflow=hidden;rotatable=0;points=[[0,0.5],[1,0.5]];portConstraint=eastwest;" vertex="1" parent="n-LFxdYQ2BIZRGmbfsYB-207">
          <mxGeometry y="194" width="160" height="28" as="geometry" />
        </mxCell>
        <mxCell id="n-LFxdYQ2BIZRGmbfsYB-216" value="setY" style="text;align=left;verticalAlign=top;spacingLeft=4;spacingRight=4;overflow=hidden;rotatable=0;points=[[0,0.5],[1,0.5]];portConstraint=eastwest;" vertex="1" parent="n-LFxdYQ2BIZRGmbfsYB-207">
          <mxGeometry y="222" width="160" height="28" as="geometry" />
        </mxCell>
        <mxCell id="n-LFxdYQ2BIZRGmbfsYB-217" value="getX" style="text;align=left;verticalAlign=top;spacingLeft=4;spacingRight=4;overflow=hidden;rotatable=0;points=[[0,0.5],[1,0.5]];portConstraint=eastwest;" vertex="1" parent="n-LFxdYQ2BIZRGmbfsYB-207">
          <mxGeometry y="250" width="160" height="28" as="geometry" />
        </mxCell>
        <mxCell id="n-LFxdYQ2BIZRGmbfsYB-218" value="getWidth" style="text;align=left;verticalAlign=top;spacingLeft=4;spacingRight=4;overflow=hidden;rotatable=0;points=[[0,0.5],[1,0.5]];portConstraint=eastwest;" vertex="1" parent="n-LFxdYQ2BIZRGmbfsYB-207">
          <mxGeometry y="278" width="160" height="28" as="geometry" />
        </mxCell>
        <mxCell id="n-LFxdYQ2BIZRGmbfsYB-219" value="Player" style="swimlane;fontStyle=2;align=center;verticalAlign=top;childLayout=stackLayout;horizontal=1;startSize=26;horizontalStack=0;resizeParent=1;resizeLast=0;collapsible=1;marginBottom=0;rounded=0;shadow=0;strokeWidth=1;" vertex="1" parent="WIyWlLk6GJQsqaUBKTNV-1">
          <mxGeometry x="50" y="1612" width="160" height="310" as="geometry">
            <mxRectangle x="230" y="140" width="160" height="26" as="alternateBounds" />
          </mxGeometry>
        </mxCell>
        <mxCell id="n-LFxdYQ2BIZRGmbfsYB-220" value="- paddle : Paddle" style="text;align=left;verticalAlign=top;spacingLeft=4;spacingRight=4;overflow=hidden;rotatable=0;points=[[0,0.5],[1,0.5]];portConstraint=eastwest;" vertex="1" parent="n-LFxdYQ2BIZRGmbfsYB-219">
          <mxGeometry y="26" width="160" height="26" as="geometry" />
        </mxCell>
        <mxCell id="n-LFxdYQ2BIZRGmbfsYB-221" value="- score : int" style="text;align=left;verticalAlign=top;spacingLeft=4;spacingRight=4;overflow=hidden;rotatable=0;points=[[0,0.5],[1,0.5]];portConstraint=eastwest;rounded=0;shadow=0;html=0;" vertex="1" parent="n-LFxdYQ2BIZRGmbfsYB-219">
          <mxGeometry y="52" width="160" height="26" as="geometry" />
        </mxCell>
        <mxCell id="n-LFxdYQ2BIZRGmbfsYB-222" value="- sets : int" style="text;align=left;verticalAlign=top;spacingLeft=4;spacingRight=4;overflow=hidden;rotatable=0;points=[[0,0.5],[1,0.5]];portConstraint=eastwest;rounded=0;shadow=0;html=0;" vertex="1" parent="n-LFxdYQ2BIZRGmbfsYB-219">
          <mxGeometry y="78" width="160" height="26" as="geometry" />
        </mxCell>
        <mxCell id="n-LFxdYQ2BIZRGmbfsYB-223" value="" style="line;html=1;strokeWidth=1;align=left;verticalAlign=middle;spacingTop=-1;spacingLeft=3;spacingRight=3;rotatable=0;labelPosition=right;points=[];portConstraint=eastwest;" vertex="1" parent="n-LFxdYQ2BIZRGmbfsYB-219">
          <mxGeometry y="104" width="160" height="6" as="geometry" />
        </mxCell>
        <mxCell id="n-LFxdYQ2BIZRGmbfsYB-224" value="constructor" style="text;align=left;verticalAlign=top;spacingLeft=4;spacingRight=4;overflow=hidden;rotatable=0;points=[[0,0.5],[1,0.5]];portConstraint=eastwest;" vertex="1" parent="n-LFxdYQ2BIZRGmbfsYB-219">
          <mxGeometry y="110" width="160" height="28" as="geometry" />
        </mxCell>
        <mxCell id="n-LFxdYQ2BIZRGmbfsYB-225" value="constructorParameters" style="text;align=left;verticalAlign=top;spacingLeft=4;spacingRight=4;overflow=hidden;rotatable=0;points=[[0,0.5],[1,0.5]];portConstraint=eastwest;" vertex="1" parent="n-LFxdYQ2BIZRGmbfsYB-219">
          <mxGeometry y="138" width="160" height="28" as="geometry" />
        </mxCell>
        <mxCell id="n-LFxdYQ2BIZRGmbfsYB-226" value="getPaddle" style="text;align=left;verticalAlign=top;spacingLeft=4;spacingRight=4;overflow=hidden;rotatable=0;points=[[0,0.5],[1,0.5]];portConstraint=eastwest;" vertex="1" parent="n-LFxdYQ2BIZRGmbfsYB-219">
          <mxGeometry y="166" width="160" height="28" as="geometry" />
        </mxCell>
        <mxCell id="n-LFxdYQ2BIZRGmbfsYB-227" value="getScore" style="text;align=left;verticalAlign=top;spacingLeft=4;spacingRight=4;overflow=hidden;rotatable=0;points=[[0,0.5],[1,0.5]];portConstraint=eastwest;" vertex="1" parent="n-LFxdYQ2BIZRGmbfsYB-219">
          <mxGeometry y="194" width="160" height="28" as="geometry" />
        </mxCell>
        <mxCell id="n-LFxdYQ2BIZRGmbfsYB-228" value="increaseScore" style="text;align=left;verticalAlign=top;spacingLeft=4;spacingRight=4;overflow=hidden;rotatable=0;points=[[0,0.5],[1,0.5]];portConstraint=eastwest;" vertex="1" parent="n-LFxdYQ2BIZRGmbfsYB-219">
          <mxGeometry y="222" width="160" height="28" as="geometry" />
        </mxCell>
        <mxCell id="n-LFxdYQ2BIZRGmbfsYB-229" value="increaseSets" style="text;align=left;verticalAlign=top;spacingLeft=4;spacingRight=4;overflow=hidden;rotatable=0;points=[[0,0.5],[1,0.5]];portConstraint=eastwest;" vertex="1" parent="n-LFxdYQ2BIZRGmbfsYB-219">
          <mxGeometry y="250" width="160" height="30" as="geometry" />
        </mxCell>
        <mxCell id="n-LFxdYQ2BIZRGmbfsYB-230" value="resetScore" style="text;align=left;verticalAlign=top;spacingLeft=4;spacingRight=4;overflow=hidden;rotatable=0;points=[[0,0.5],[1,0.5]];portConstraint=eastwest;" vertex="1" parent="n-LFxdYQ2BIZRGmbfsYB-219">
          <mxGeometry y="280" width="160" height="30" as="geometry" />
        </mxCell>
        <mxCell id="n-LFxdYQ2BIZRGmbfsYB-231" value="&lt;font style=&quot;font-size: 72px;&quot;&gt;SERVER&lt;/font&gt;" style="text;html=1;strokeColor=none;fillColor=none;align=center;verticalAlign=middle;whiteSpace=wrap;rounded=0;" vertex="1" parent="WIyWlLk6GJQsqaUBKTNV-1">
          <mxGeometry x="304" y="1202" width="280" height="110" as="geometry" />
        </mxCell>
        <mxCell id="n-LFxdYQ2BIZRGmbfsYB-250" value="Listener" style="swimlane;fontStyle=2;align=center;verticalAlign=top;childLayout=stackLayout;horizontal=1;startSize=26;horizontalStack=0;resizeParent=1;resizeLast=0;collapsible=1;marginBottom=0;rounded=0;shadow=0;strokeWidth=1;" vertex="1" parent="WIyWlLk6GJQsqaUBKTNV-1">
          <mxGeometry x="224" y="1332" width="186" height="200" as="geometry">
            <mxRectangle x="230" y="140" width="160" height="26" as="alternateBounds" />
          </mxGeometry>
        </mxCell>
        <mxCell id="n-LFxdYQ2BIZRGmbfsYB-251" value="- lastPressedKeyCode : int" style="text;align=left;verticalAlign=top;spacingLeft=4;spacingRight=4;overflow=hidden;rotatable=0;points=[[0,0.5],[1,0.5]];portConstraint=eastwest;" vertex="1" parent="n-LFxdYQ2BIZRGmbfsYB-250">
          <mxGeometry y="26" width="186" height="26" as="geometry" />
        </mxCell>
        <mxCell id="n-LFxdYQ2BIZRGmbfsYB-252" value="" style="line;html=1;strokeWidth=1;align=left;verticalAlign=middle;spacingTop=-1;spacingLeft=3;spacingRight=3;rotatable=0;labelPosition=right;points=[];portConstraint=eastwest;" vertex="1" parent="n-LFxdYQ2BIZRGmbfsYB-250">
          <mxGeometry y="52" width="186" height="8" as="geometry" />
        </mxCell>
        <mxCell id="n-LFxdYQ2BIZRGmbfsYB-253" value="+ keyPressed" style="text;align=left;verticalAlign=top;spacingLeft=4;spacingRight=4;overflow=hidden;rotatable=0;points=[[0,0.5],[1,0.5]];portConstraint=eastwest;" vertex="1" parent="n-LFxdYQ2BIZRGmbfsYB-250">
          <mxGeometry y="60" width="186" height="28" as="geometry" />
        </mxCell>
        <mxCell id="n-LFxdYQ2BIZRGmbfsYB-254" value="+ keyReleased" style="text;align=left;verticalAlign=top;spacingLeft=4;spacingRight=4;overflow=hidden;rotatable=0;points=[[0,0.5],[1,0.5]];portConstraint=eastwest;" vertex="1" parent="n-LFxdYQ2BIZRGmbfsYB-250">
          <mxGeometry y="88" width="186" height="28" as="geometry" />
        </mxCell>
        <mxCell id="n-LFxdYQ2BIZRGmbfsYB-255" value="+ keyTyped" style="text;align=left;verticalAlign=top;spacingLeft=4;spacingRight=4;overflow=hidden;rotatable=0;points=[[0,0.5],[1,0.5]];portConstraint=eastwest;" vertex="1" parent="n-LFxdYQ2BIZRGmbfsYB-250">
          <mxGeometry y="116" width="186" height="34" as="geometry" />
        </mxCell>
        <mxCell id="n-LFxdYQ2BIZRGmbfsYB-256" value="+ getLastKeyPressed" style="text;align=left;verticalAlign=top;spacingLeft=4;spacingRight=4;overflow=hidden;rotatable=0;points=[[0,0.5],[1,0.5]];portConstraint=eastwest;" vertex="1" parent="n-LFxdYQ2BIZRGmbfsYB-250">
          <mxGeometry y="150" width="186" height="30" as="geometry" />
        </mxCell>
        <mxCell id="n-LFxdYQ2BIZRGmbfsYB-257" value="LoadingPanel" style="swimlane;fontStyle=2;align=center;verticalAlign=top;childLayout=stackLayout;horizontal=1;startSize=26;horizontalStack=0;resizeParent=1;resizeLast=0;collapsible=1;marginBottom=0;rounded=0;shadow=0;strokeWidth=1;" vertex="1" parent="WIyWlLk6GJQsqaUBKTNV-1">
          <mxGeometry x="595" y="2100" width="190" height="170" as="geometry">
            <mxRectangle x="230" y="140" width="160" height="26" as="alternateBounds" />
          </mxGeometry>
        </mxCell>
        <mxCell id="n-LFxdYQ2BIZRGmbfsYB-258" value="- clientsConnected : Boolean" style="text;align=left;verticalAlign=top;spacingLeft=4;spacingRight=4;overflow=hidden;rotatable=0;points=[[0,0.5],[1,0.5]];portConstraint=eastwest;" vertex="1" parent="n-LFxdYQ2BIZRGmbfsYB-257">
          <mxGeometry y="26" width="190" height="26" as="geometry" />
        </mxCell>
        <mxCell id="n-LFxdYQ2BIZRGmbfsYB-259" value="- countdownTime : int" style="text;align=left;verticalAlign=top;spacingLeft=4;spacingRight=4;overflow=hidden;rotatable=0;points=[[0,0.5],[1,0.5]];portConstraint=eastwest;rounded=0;shadow=0;html=0;" vertex="1" parent="n-LFxdYQ2BIZRGmbfsYB-257">
          <mxGeometry y="52" width="190" height="26" as="geometry" />
        </mxCell>
        <mxCell id="n-LFxdYQ2BIZRGmbfsYB-260" value="" style="line;html=1;strokeWidth=1;align=left;verticalAlign=middle;spacingTop=-1;spacingLeft=3;spacingRight=3;rotatable=0;labelPosition=right;points=[];portConstraint=eastwest;" vertex="1" parent="n-LFxdYQ2BIZRGmbfsYB-257">
          <mxGeometry y="78" width="190" height="8" as="geometry" />
        </mxCell>
        <mxCell id="n-LFxdYQ2BIZRGmbfsYB-261" value="constructorParameters" style="text;align=left;verticalAlign=top;spacingLeft=4;spacingRight=4;overflow=hidden;rotatable=0;points=[[0,0.5],[1,0.5]];portConstraint=eastwest;" vertex="1" parent="n-LFxdYQ2BIZRGmbfsYB-257">
          <mxGeometry y="86" width="190" height="28" as="geometry" />
        </mxCell>
        <mxCell id="n-LFxdYQ2BIZRGmbfsYB-262" value="getPreferredSize" style="text;align=left;verticalAlign=top;spacingLeft=4;spacingRight=4;overflow=hidden;rotatable=0;points=[[0,0.5],[1,0.5]];portConstraint=eastwest;" vertex="1" parent="n-LFxdYQ2BIZRGmbfsYB-257">
          <mxGeometry y="114" width="190" height="28" as="geometry" />
        </mxCell>
        <mxCell id="n-LFxdYQ2BIZRGmbfsYB-263" value="paintComponent" style="text;align=left;verticalAlign=top;spacingLeft=4;spacingRight=4;overflow=hidden;rotatable=0;points=[[0,0.5],[1,0.5]];portConstraint=eastwest;" vertex="1" parent="n-LFxdYQ2BIZRGmbfsYB-257">
          <mxGeometry y="142" width="190" height="28" as="geometry" />
        </mxCell>
        <mxCell id="n-LFxdYQ2BIZRGmbfsYB-264" value="TcpServer" style="swimlane;fontStyle=2;align=center;verticalAlign=top;childLayout=stackLayout;horizontal=1;startSize=26;horizontalStack=0;resizeParent=1;resizeLast=0;collapsible=1;marginBottom=0;rounded=0;shadow=0;strokeWidth=1;" vertex="1" parent="WIyWlLk6GJQsqaUBKTNV-1">
          <mxGeometry x="80" y="1952" width="190" height="250" as="geometry">
            <mxRectangle x="230" y="140" width="160" height="26" as="alternateBounds" />
          </mxGeometry>
        </mxCell>
        <mxCell id="n-LFxdYQ2BIZRGmbfsYB-265" value="- serverSocket : ServerSocket" style="text;align=left;verticalAlign=top;spacingLeft=4;spacingRight=4;overflow=hidden;rotatable=0;points=[[0,0.5],[1,0.5]];portConstraint=eastwest;" vertex="1" parent="n-LFxdYQ2BIZRGmbfsYB-264">
          <mxGeometry y="26" width="190" height="26" as="geometry" />
        </mxCell>
        <mxCell id="n-LFxdYQ2BIZRGmbfsYB-266" value="- clientSockets : Socket [ ]" style="text;align=left;verticalAlign=top;spacingLeft=4;spacingRight=4;overflow=hidden;rotatable=0;points=[[0,0.5],[1,0.5]];portConstraint=eastwest;rounded=0;shadow=0;html=0;" vertex="1" parent="n-LFxdYQ2BIZRGmbfsYB-264">
          <mxGeometry y="52" width="190" height="26" as="geometry" />
        </mxCell>
        <mxCell id="n-LFxdYQ2BIZRGmbfsYB-267" value="- connectedClients: int" style="text;align=left;verticalAlign=top;spacingLeft=4;spacingRight=4;overflow=hidden;rotatable=0;points=[[0,0.5],[1,0.5]];portConstraint=eastwest;rounded=0;shadow=0;html=0;" vertex="1" parent="n-LFxdYQ2BIZRGmbfsYB-264">
          <mxGeometry y="78" width="190" height="26" as="geometry" />
        </mxCell>
        <mxCell id="n-LFxdYQ2BIZRGmbfsYB-269" value="" style="line;html=1;strokeWidth=1;align=left;verticalAlign=middle;spacingTop=-1;spacingLeft=3;spacingRight=3;rotatable=0;labelPosition=right;points=[];portConstraint=eastwest;" vertex="1" parent="n-LFxdYQ2BIZRGmbfsYB-264">
          <mxGeometry y="104" width="190" height="8" as="geometry" />
        </mxCell>
        <mxCell id="n-LFxdYQ2BIZRGmbfsYB-270" value="constructor" style="text;align=left;verticalAlign=top;spacingLeft=4;spacingRight=4;overflow=hidden;rotatable=0;points=[[0,0.5],[1,0.5]];portConstraint=eastwest;" vertex="1" parent="n-LFxdYQ2BIZRGmbfsYB-264">
          <mxGeometry y="112" width="190" height="28" as="geometry" />
        </mxCell>
        <mxCell id="n-LFxdYQ2BIZRGmbfsYB-271" value="startGame" style="text;align=left;verticalAlign=top;spacingLeft=4;spacingRight=4;overflow=hidden;rotatable=0;points=[[0,0.5],[1,0.5]];portConstraint=eastwest;" vertex="1" parent="n-LFxdYQ2BIZRGmbfsYB-264">
          <mxGeometry y="140" width="190" height="28" as="geometry" />
        </mxCell>
        <mxCell id="n-LFxdYQ2BIZRGmbfsYB-272" value="sendGeneratedField" style="text;align=left;verticalAlign=top;spacingLeft=4;spacingRight=4;overflow=hidden;rotatable=0;points=[[0,0.5],[1,0.5]];portConstraint=eastwest;" vertex="1" parent="n-LFxdYQ2BIZRGmbfsYB-264">
          <mxGeometry y="168" width="190" height="28" as="geometry" />
        </mxCell>
        <mxCell id="n-LFxdYQ2BIZRGmbfsYB-273" value="updateField" style="text;align=left;verticalAlign=top;spacingLeft=4;spacingRight=4;overflow=hidden;rotatable=0;points=[[0,0.5],[1,0.5]];portConstraint=eastwest;" vertex="1" parent="n-LFxdYQ2BIZRGmbfsYB-264">
          <mxGeometry y="196" width="190" height="28" as="geometry" />
        </mxCell>
        <mxCell id="n-LFxdYQ2BIZRGmbfsYB-274" value="ThreadUpdate" style="swimlane;fontStyle=2;align=center;verticalAlign=top;childLayout=stackLayout;horizontal=1;startSize=26;horizontalStack=0;resizeParent=1;resizeLast=0;collapsible=1;marginBottom=0;rounded=0;shadow=0;strokeWidth=1;" vertex="1" parent="WIyWlLk6GJQsqaUBKTNV-1">
          <mxGeometry x="335" y="2092" width="190" height="116" as="geometry">
            <mxRectangle x="230" y="140" width="160" height="26" as="alternateBounds" />
          </mxGeometry>
        </mxCell>
        <mxCell id="n-LFxdYQ2BIZRGmbfsYB-275" value="- field : Field" style="text;align=left;verticalAlign=top;spacingLeft=4;spacingRight=4;overflow=hidden;rotatable=0;points=[[0,0.5],[1,0.5]];portConstraint=eastwest;" vertex="1" parent="n-LFxdYQ2BIZRGmbfsYB-274">
          <mxGeometry y="26" width="190" height="26" as="geometry" />
        </mxCell>
        <mxCell id="n-LFxdYQ2BIZRGmbfsYB-276" value="" style="line;html=1;strokeWidth=1;align=left;verticalAlign=middle;spacingTop=-1;spacingLeft=3;spacingRight=3;rotatable=0;labelPosition=right;points=[];portConstraint=eastwest;" vertex="1" parent="n-LFxdYQ2BIZRGmbfsYB-274">
          <mxGeometry y="52" width="190" height="8" as="geometry" />
        </mxCell>
        <mxCell id="n-LFxdYQ2BIZRGmbfsYB-277" value="constructorParameters" style="text;align=left;verticalAlign=top;spacingLeft=4;spacingRight=4;overflow=hidden;rotatable=0;points=[[0,0.5],[1,0.5]];portConstraint=eastwest;" vertex="1" parent="n-LFxdYQ2BIZRGmbfsYB-274">
          <mxGeometry y="60" width="190" height="28" as="geometry" />
        </mxCell>
        <mxCell id="n-LFxdYQ2BIZRGmbfsYB-278" value="+ run" style="text;align=left;verticalAlign=top;spacingLeft=4;spacingRight=4;overflow=hidden;rotatable=0;points=[[0,0.5],[1,0.5]];portConstraint=eastwest;" vertex="1" parent="n-LFxdYQ2BIZRGmbfsYB-274">
          <mxGeometry y="88" width="190" height="28" as="geometry" />
        </mxCell>
        <mxCell id="n-LFxdYQ2BIZRGmbfsYB-279" value="XML" style="swimlane;fontStyle=2;align=center;verticalAlign=top;childLayout=stackLayout;horizontal=1;startSize=26;horizontalStack=0;resizeParent=1;resizeLast=0;collapsible=1;marginBottom=0;rounded=0;shadow=0;strokeWidth=1;" vertex="1" parent="WIyWlLk6GJQsqaUBKTNV-1">
          <mxGeometry x="220" y="2222" width="190" height="116" as="geometry">
            <mxRectangle x="230" y="140" width="160" height="26" as="alternateBounds" />
          </mxGeometry>
        </mxCell>
        <mxCell id="n-LFxdYQ2BIZRGmbfsYB-280" value="- tmpFileName : String" style="text;align=left;verticalAlign=top;spacingLeft=4;spacingRight=4;overflow=hidden;rotatable=0;points=[[0,0.5],[1,0.5]];portConstraint=eastwest;" vertex="1" parent="n-LFxdYQ2BIZRGmbfsYB-279">
          <mxGeometry y="26" width="190" height="26" as="geometry" />
        </mxCell>
        <mxCell id="n-LFxdYQ2BIZRGmbfsYB-281" value="" style="line;html=1;strokeWidth=1;align=left;verticalAlign=middle;spacingTop=-1;spacingLeft=3;spacingRight=3;rotatable=0;labelPosition=right;points=[];portConstraint=eastwest;" vertex="1" parent="n-LFxdYQ2BIZRGmbfsYB-279">
          <mxGeometry y="52" width="190" height="8" as="geometry" />
        </mxCell>
        <mxCell id="n-LFxdYQ2BIZRGmbfsYB-282" value="constructorParameters" style="text;align=left;verticalAlign=top;spacingLeft=4;spacingRight=4;overflow=hidden;rotatable=0;points=[[0,0.5],[1,0.5]];portConstraint=eastwest;" vertex="1" parent="n-LFxdYQ2BIZRGmbfsYB-279">
          <mxGeometry y="60" width="190" height="28" as="geometry" />
        </mxCell>
        <mxCell id="n-LFxdYQ2BIZRGmbfsYB-283" value="+ run" style="text;align=left;verticalAlign=top;spacingLeft=4;spacingRight=4;overflow=hidden;rotatable=0;points=[[0,0.5],[1,0.5]];portConstraint=eastwest;" vertex="1" parent="n-LFxdYQ2BIZRGmbfsYB-279">
          <mxGeometry y="88" width="190" height="28" as="geometry" />
        </mxCell>
        <mxCell id="n-LFxdYQ2BIZRGmbfsYB-286" value="FieldUpdater" style="swimlane;fontStyle=2;align=center;verticalAlign=top;childLayout=stackLayout;horizontal=1;startSize=26;horizontalStack=0;resizeParent=1;resizeLast=0;collapsible=1;marginBottom=0;rounded=0;shadow=0;strokeWidth=1;" vertex="1" parent="WIyWlLk6GJQsqaUBKTNV-1">
          <mxGeometry x="580" y="1870" width="190" height="200" as="geometry">
            <mxRectangle x="230" y="140" width="160" height="26" as="alternateBounds" />
          </mxGeometry>
        </mxCell>
        <mxCell id="n-LFxdYQ2BIZRGmbfsYB-287" value="- fields: List&lt;Field&gt;" style="text;align=left;verticalAlign=top;spacingLeft=4;spacingRight=4;overflow=hidden;rotatable=0;points=[[0,0.5],[1,0.5]];portConstraint=eastwest;" vertex="1" parent="n-LFxdYQ2BIZRGmbfsYB-286">
          <mxGeometry y="26" width="190" height="26" as="geometry" />
        </mxCell>
        <mxCell id="n-LFxdYQ2BIZRGmbfsYB-289" value="" style="line;html=1;strokeWidth=1;align=left;verticalAlign=middle;spacingTop=-1;spacingLeft=3;spacingRight=3;rotatable=0;labelPosition=right;points=[];portConstraint=eastwest;" vertex="1" parent="n-LFxdYQ2BIZRGmbfsYB-286">
          <mxGeometry y="52" width="190" height="8" as="geometry" />
        </mxCell>
        <mxCell id="n-LFxdYQ2BIZRGmbfsYB-290" value="constructorParameters" style="text;align=left;verticalAlign=top;spacingLeft=4;spacingRight=4;overflow=hidden;rotatable=0;points=[[0,0.5],[1,0.5]];portConstraint=eastwest;" vertex="1" parent="n-LFxdYQ2BIZRGmbfsYB-286">
          <mxGeometry y="60" width="190" height="28" as="geometry" />
        </mxCell>
        <mxCell id="n-LFxdYQ2BIZRGmbfsYB-291" value="+ swapInfo" style="text;align=left;verticalAlign=top;spacingLeft=4;spacingRight=4;overflow=hidden;rotatable=0;points=[[0,0.5],[1,0.5]];portConstraint=eastwest;" vertex="1" parent="n-LFxdYQ2BIZRGmbfsYB-286">
          <mxGeometry y="88" width="190" height="28" as="geometry" />
        </mxCell>
        <mxCell id="n-LFxdYQ2BIZRGmbfsYB-292" value="+ controls" style="text;align=left;verticalAlign=top;spacingLeft=4;spacingRight=4;overflow=hidden;rotatable=0;points=[[0,0.5],[1,0.5]];portConstraint=eastwest;" vertex="1" parent="n-LFxdYQ2BIZRGmbfsYB-286">
          <mxGeometry y="116" width="190" height="28" as="geometry" />
        </mxCell>
        <mxCell id="n-LFxdYQ2BIZRGmbfsYB-293" value="+ getFieldOne" style="text;align=left;verticalAlign=top;spacingLeft=4;spacingRight=4;overflow=hidden;rotatable=0;points=[[0,0.5],[1,0.5]];portConstraint=eastwest;" vertex="1" parent="n-LFxdYQ2BIZRGmbfsYB-286">
          <mxGeometry y="144" width="190" height="28" as="geometry" />
        </mxCell>
        <mxCell id="n-LFxdYQ2BIZRGmbfsYB-294" value="+ getFieldTwo" style="text;align=left;verticalAlign=top;spacingLeft=4;spacingRight=4;overflow=hidden;rotatable=0;points=[[0,0.5],[1,0.5]];portConstraint=eastwest;" vertex="1" parent="n-LFxdYQ2BIZRGmbfsYB-286">
          <mxGeometry y="172" width="190" height="28" as="geometry" />
        </mxCell>
      </root>
    </mxGraphModel>
  </diagram>
</mxfile>
